<svg width="66" height="66" viewBox="0 0 66 66" fill="none" xmlns="http://www.w3.org/2000/svg">
<g id="Logomark">
<path id="Exclude" opacity="0.8" d="M32.5875 0.491455C14.5899 0.491455 0 15.0609 0 33.0331C0 51.0054 14.5899 65.5748 32.5875 65.5748C48.7346 65.5748 62.1387 53.8474 64.7244 38.4567H64.4906C62.0788 47.8137 53.5729 54.7276 43.45 54.7276C31.4517 54.7276 21.725 45.0147 21.725 33.0331C21.725 21.0516 31.4517 11.3387 43.45 11.3387C53.5729 11.3387 62.0788 18.2525 64.4906 27.6095H64.7244C62.1387 12.2189 48.7346 0.491455 32.5875 0.491455Z" fill="white"/>
<path id="Exclude_2" d="M0 33.0331C0 15.0609 14.5899 0.491455 32.5875 0.491455C48.7346 0.491455 62.1387 12.2189 64.7244 27.6095H42.7656C40.3539 18.2526 31.848 11.3387 21.725 11.3387C9.72661 11.3387 0 21.0516 0 33.0331Z" fill="white"/>
<path id="Exclude_3" d="M0 33.033C0 51.0053 14.5899 65.5747 32.5875 65.5747C48.7346 65.5747 62.1387 53.8473 64.7244 38.4566H42.7656C40.3539 47.8136 31.848 54.7275 21.725 54.7275C9.72661 54.7275 0 45.0146 0 33.033Z" fill="white"/>
</g>
</svg>
